<?xml version="1.0" encoding="UTF-8"?>
<!DOCTYPE svg PUBLIC "-//W3C//DTD SVG 1.1//EN" "http://www.w3.org/Graphics/SVG/1.1/DTD/svg11.dtd">
<svg version="1.2" width="147.77mm" height="28.92mm" viewBox="3113 21933 14777 2892" preserveAspectRatio="xMidYMid" fill-rule="evenodd" stroke-width="28.222" stroke-linejoin="round" xmlns="http://www.w3.org/2000/svg" xmlns:ooo="http://xml.openoffice.org/svg/export" xmlns:xlink="http://www.w3.org/1999/xlink" xmlns:presentation="http://sun.com/xmlns/staroffice/presentation" xmlns:smil="http://www.w3.org/2001/SMIL20/" xmlns:anim="urn:oasis:names:tc:opendocument:xmlns:animation:1.0" xml:space="preserve">
 <defs class="EmbeddedBulletChars">
  <g id="bullet-char-template-57356" transform="scale(0.00048828125,-0.00048828125)">
   <path d="M 580,1141 L 1163,571 580,0 -4,571 580,1141 Z"/>
  </g>
  <g id="bullet-char-template-57354" transform="scale(0.00048828125,-0.00048828125)">
   <path d="M 8,1128 L 1137,1128 1137,0 8,0 8,1128 Z"/>
  </g>
  <g id="bullet-char-template-10146" transform="scale(0.00048828125,-0.00048828125)">
   <path d="M 174,0 L 602,739 174,1481 1456,739 174,0 Z M 1358,739 L 309,1346 659,739 1358,739 Z"/>
  </g>
  <g id="bullet-char-template-10132" transform="scale(0.00048828125,-0.00048828125)">
   <path d="M 2015,739 L 1276,0 717,0 1260,543 174,543 174,936 1260,936 717,1481 1274,1481 2015,739 Z"/>
  </g>
  <g id="bullet-char-template-10007" transform="scale(0.00048828125,-0.00048828125)">
   <path d="M 0,-2 C -7,14 -16,27 -25,37 L 356,567 C 262,823 215,952 215,954 215,979 228,992 255,992 264,992 276,990 289,987 310,991 331,999 354,1012 L 381,999 492,748 772,1049 836,1024 860,1049 C 881,1039 901,1025 922,1006 886,937 835,863 770,784 769,783 710,716 594,584 L 774,223 C 774,196 753,168 711,139 L 727,119 C 717,90 699,76 672,76 641,76 570,178 457,381 L 164,-76 C 142,-110 111,-127 72,-127 30,-127 9,-110 8,-76 1,-67 -2,-52 -2,-32 -2,-23 -1,-13 0,-2 Z"/>
  </g>
  <g id="bullet-char-template-10004" transform="scale(0.00048828125,-0.00048828125)">
   <path d="M 285,-33 C 182,-33 111,30 74,156 52,228 41,333 41,471 41,549 55,616 82,672 116,743 169,778 240,778 293,778 328,747 346,684 L 369,508 C 377,444 397,411 428,410 L 1163,1116 C 1174,1127 1196,1133 1229,1133 1271,1133 1292,1118 1292,1087 L 1292,965 C 1292,929 1282,901 1262,881 L 442,47 C 390,-6 338,-33 285,-33 Z"/>
  </g>
  <g id="bullet-char-template-9679" transform="scale(0.00048828125,-0.00048828125)">
   <path d="M 813,0 C 632,0 489,54 383,161 276,268 223,411 223,592 223,773 276,916 383,1023 489,1130 632,1184 813,1184 992,1184 1136,1130 1245,1023 1353,916 1407,772 1407,592 1407,412 1353,268 1245,161 1136,54 992,0 813,0 Z"/>
  </g>
  <g id="bullet-char-template-8226" transform="scale(0.00048828125,-0.00048828125)">
   <path d="M 346,457 C 273,457 209,483 155,535 101,586 74,649 74,723 74,796 101,859 155,911 209,963 273,989 346,989 419,989 480,963 531,910 582,859 608,796 608,723 608,648 583,586 532,535 482,483 420,457 346,457 Z"/>
  </g>
  <g id="bullet-char-template-8211" transform="scale(0.00048828125,-0.00048828125)">
   <path d="M -4,459 L 1135,459 1135,606 -4,606 -4,459 Z"/>
  </g>
  <g id="bullet-char-template-61548" transform="scale(0.00048828125,-0.00048828125)">
   <path d="M 173,740 C 173,903 231,1043 346,1159 462,1274 601,1332 765,1332 928,1332 1067,1274 1183,1159 1299,1043 1357,903 1357,740 1357,577 1299,437 1183,322 1067,206 928,148 765,148 601,148 462,206 346,322 231,437 173,577 173,740 Z"/>
  </g>
 </defs>
 <g class="Page">
  <g class="Group">
   <g class="com.sun.star.drawing.ClosedBezierShape">
    <g id="id3">
     <rect class="BoundingBox" stroke="none" fill="none" x="3113" y="21934" width="2891" height="2891"/>
     <path fill="rgb(255,255,255)" stroke="none" d="M 4558,21934 C 5356,21934 6003,22580 6003,23379 6003,24177 5356,24824 4558,24824 3759,24824 3113,24177 3113,23379 3113,22580 3759,21934 4558,21934 Z"/>
    </g>
   </g>
   <g class="com.sun.star.drawing.ClosedBezierShape">
    <g id="id4">
     <rect class="BoundingBox" stroke="none" fill="none" x="6401" y="22139" width="5786" height="2481"/>
     <path fill="rgb(0,93,133)" stroke="none" d="M 7983,22275 L 7983,22212 7983,22139 8054,22139 8828,22139 8840,22139 8900,22139 8912,22139 9709,22139 C 9827,22139 9932,22143 10023,22152 10114,22162 10191,22176 10251,22195 L 10251,22195 C 10314,22215 10371,22243 10424,22279 10477,22315 10526,22360 10569,22412 L 10569,22413 C 10614,22467 10648,22527 10670,22591 10692,22656 10703,22725 10703,22800 10703,22878 10691,22952 10665,23022 10640,23091 10602,23154 10551,23213 L 10552,23213 C 10501,23271 10438,23321 10361,23361 10313,23386 10261,23408 10204,23426 L 10601,23992 10602,23992 C 10652,24066 10699,24126 10742,24173 10784,24219 10820,24252 10853,24273 L 10853,24274 C 10885,24294 10922,24312 10966,24325 11009,24339 11058,24349 11112,24356 L 11163,24356 11242,24356 C 11278,24356 11309,24351 11334,24341 11355,24332 11372,24319 11384,24302 L 11384,24302 C 11390,24294 11395,24275 11400,24244 11406,24206 11409,24154 11409,24088 L 11409,22615 C 11409,22558 11407,22513 11404,22479 11401,22448 11398,22426 11393,22414 L 11393,22414 C 11391,22409 11387,22404 11383,22399 11376,22392 11367,22385 11357,22379 L 11357,22379 C 11338,22368 11320,22361 11301,22356 11282,22351 11263,22349 11242,22349 L 11163,22349 11091,22349 11091,22275 11091,22212 11091,22139 11163,22139 12114,22139 12186,22139 12186,22212 12186,22275 12186,22349 12114,22349 12034,22349 C 11998,22349 11967,22354 11943,22364 11922,22372 11905,22385 11892,22402 11886,22410 11881,22430 11876,22461 11869,22499 11866,22550 11866,22615 L 11866,24088 C 11866,24145 11868,24191 11871,24225 11874,24256 11878,24277 11883,24290 L 11883,24290 C 11885,24295 11888,24299 11892,24304 11899,24311 11908,24318 11920,24324 L 11920,24325 C 11938,24335 11956,24343 11976,24348 11994,24353 12013,24356 12034,24356 L 12114,24356 12186,24356 12186,24430 12186,24545 12186,24619 12114,24619 11181,24619 11163,24619 11109,24619 11091,24619 10515,24619 10478,24619 10457,24587 9727,23501 C 9714,23501 9702,23501 9690,23502 9659,23502 9637,23503 9628,23503 9621,23503 9614,23503 9603,23503 L 9603,24088 C 9603,24156 9607,24209 9614,24249 9619,24280 9625,24299 9631,24307 L 9631,24307 C 9644,24323 9661,24334 9681,24342 9703,24351 9731,24356 9764,24356 L 9851,24356 9923,24356 9923,24430 9923,24545 9923,24619 9851,24619 8900,24619 8828,24619 8828,24545 8828,24430 8828,24356 8900,24356 8983,24356 C 9020,24356 9051,24350 9075,24339 9096,24329 9112,24314 9125,24295 L 9125,24294 C 9131,24286 9135,24267 9140,24237 9145,24200 9148,24150 9148,24088 L 9148,22615 C 9148,22548 9144,22494 9137,22454 9132,22423 9126,22405 9120,22398 L 9120,22398 C 9107,22382 9090,22370 9069,22362 9046,22353 9017,22349 8983,22349 L 8912,22349 8900,22349 8840,22349 8828,22349 8757,22349 C 8725,22349 8698,22355 8675,22368 8652,22380 8632,22400 8616,22427 L 8615,22428 C 8609,22437 8605,22455 8600,22485 8595,22521 8593,22569 8593,22629 L 8593,23553 C 8593,23669 8587,23774 8575,23867 8564,23961 8546,24043 8522,24111 L 8522,24111 C 8497,24182 8460,24248 8412,24308 8364,24368 8305,24422 8235,24471 8163,24521 8079,24558 7982,24583 7888,24607 7782,24619 7666,24619 7540,24619 7428,24608 7330,24585 7230,24561 7145,24525 7075,24477 L 7075,24477 C 7006,24430 6947,24374 6897,24310 6848,24246 6809,24174 6780,24094 L 6780,24093 C 6760,24038 6746,23959 6737,23858 6727,23761 6723,23644 6723,23506 L 6723,22615 C 6723,22550 6719,22497 6711,22457 6704,22424 6695,22401 6685,22389 L 6685,22389 C 6674,22377 6660,22367 6641,22361 6619,22353 6590,22349 6556,22349 L 6472,22349 6401,22349 6401,22275 6401,22212 6401,22139 6472,22139 7431,22139 7503,22139 7503,22212 7503,22275 7503,22349 7431,22349 7347,22349 C 7310,22349 7280,22354 7257,22365 7237,22373 7221,22387 7209,22405 L 7208,22406 C 7201,22417 7195,22438 7190,22469 7184,22506 7181,22555 7181,22615 L 7181,23609 C 7181,23694 7188,23792 7203,23902 L 7203,23902 C 7211,23955 7221,24002 7234,24043 7247,24082 7261,24114 7278,24140 7295,24166 7316,24190 7341,24212 7367,24235 7397,24255 7430,24273 L 7431,24273 C 7464,24291 7502,24304 7543,24313 7585,24322 7633,24327 7685,24327 7753,24327 7816,24320 7876,24305 7934,24290 7989,24268 8041,24239 8092,24210 8135,24177 8169,24141 8202,24106 8228,24067 8245,24025 8263,23979 8278,23918 8287,23839 8297,23758 8302,23658 8302,23538 L 8302,22615 C 8302,22549 8299,22495 8292,22455 8287,22425 8281,22406 8275,22398 L 8275,22398 C 8261,22382 8244,22370 8223,22362 8200,22353 8172,22349 8138,22349 L 8054,22349 7983,22349 7983,22275 Z M 7983,22275 L 7983,22275 Z M 9603,23248 C 9609,23248 9615,23248 9623,23248 9817,23248 9962,23207 10056,23125 10102,23085 10136,23040 10158,22990 10181,22940 10192,22884 10192,22821 10192,22758 10183,22703 10164,22654 10146,22606 10119,22563 10083,22526 10047,22489 10005,22461 9957,22443 9908,22424 9852,22414 9789,22414 9759,22414 9725,22417 9685,22422 9660,22425 9632,22429 9603,22434 L 9603,23248 Z"/>
    </g>
   </g>
   <g class="com.sun.star.drawing.PolyPolygonShape">
    <g id="id5">
     <rect class="BoundingBox" stroke="none" fill="none" x="12600" y="21933" width="209" height="2892"/>
     <path fill="rgb(0,93,133)" stroke="none" d="M 12600,21933 L 12808,21933 12808,24824 12600,24824 12600,21933 Z"/>
    </g>
   </g>
   <g class="com.sun.star.drawing.ClosedBezierShape">
    <g id="id6">
     <rect class="BoundingBox" stroke="none" fill="none" x="3113" y="21934" width="2891" height="2891"/>
     <path fill="rgb(0,93,133)" stroke="none" d="M 4558,21934 C 5356,21934 6003,22580 6003,23379 6003,24177 5356,24824 4558,24824 3759,24824 3113,24177 3113,23379 3113,22580 3759,21934 4558,21934 Z M 4558,21934 L 4558,21934 Z M 4825,22657 L 4624,23138 4591,24288 4826,23685 4825,22657 Z M 4825,22657 L 4825,22657 Z M 4299,22657 L 4501,23138 4533,24288 4298,23685 4299,22657 Z M 4299,22657 L 4299,22657 Z M 5133,22657 L 4979,22736 4987,23683 4597,24318 5134,23685 5133,22657 Z M 5133,22657 L 5133,22657 Z M 5426,22657 L 5271,22736 5278,23683 4605,24366 5427,23685 5426,22657 Z M 5426,22657 L 5426,22657 Z M 3691,22657 C 3735,22681 3802,22712 3846,22736 L 3839,23683 4512,24366 3690,23685 C 3698,23345 3683,22997 3691,22657 Z M 3691,22657 L 3691,22657 Z M 4003,22657 L 4157,22736 4150,23683 4539,24318 4002,23685 4003,22657 Z M 4003,22657 L 4003,22657 Z M 4558,22059 C 5287,22059 5878,22650 5878,23379 5878,24108 5287,24699 4558,24699 3829,24699 3238,24108 3238,23379 3238,22650 3829,22059 4558,22059 Z M 4558,22059 L 4558,22059 Z M 4558,22143 C 5239,22143 5793,22697 5793,23379 5793,24060 5239,24614 4558,24614 3876,24614 3322,24060 3322,23379 3322,22697 3876,22143 4558,22143 Z"/>
    </g>
   </g>
   <g class="com.sun.star.drawing.ClosedBezierShape">
    <g id="id7">
     <rect class="BoundingBox" stroke="none" fill="none" x="13212" y="23016" width="4678" height="729"/>
     <path fill="rgb(0,93,133)" stroke="none" d="M 13409,23069 L 13409,23344 13562,23344 C 13601,23344 13628,23338 13641,23326 13659,23310 13669,23282 13671,23243 L 13690,23243 13690,23485 13671,23485 C 13666,23452 13661,23430 13657,23420 13650,23409 13640,23399 13626,23392 13612,23385 13591,23382 13562,23382 L 13409,23382 13409,23611 C 13409,23642 13411,23660 13413,23667 13416,23674 13421,23679 13428,23683 13434,23687 13447,23689 13467,23689 L 13584,23689 C 13623,23689 13652,23686 13670,23681 13688,23675 13705,23664 13721,23648 13742,23627 13764,23595 13786,23553 L 13806,23553 13747,23727 13212,23727 13212,23708 13236,23708 C 13252,23708 13268,23704 13283,23696 13294,23690 13301,23682 13305,23671 13309,23660 13311,23638 13311,23604 L 13311,23152 C 13311,23108 13306,23081 13297,23071 13285,23057 13265,23050 13236,23050 L 13212,23050 13212,23031 13747,23031 13754,23183 13734,23183 C 13727,23147 13719,23122 13711,23108 13702,23095 13689,23084 13672,23077 13658,23072 13634,23069 13600,23069 L 13409,23069 Z M 13409,23069 L 13409,23069 Z M 14540,23727 L 14354,23727 14119,23402 C 14102,23403 14087,23403 14076,23403 14072,23403 14067,23403 14062,23403 14057,23403 14052,23402 14046,23402 L 14046,23604 C 14046,23647 14051,23675 14060,23685 14074,23700 14093,23708 14119,23708 L 14146,23708 14146,23727 13849,23727 13849,23708 13875,23708 C 13904,23708 13925,23698 13938,23679 13945,23668 13948,23643 13948,23604 L 13948,23154 C 13948,23110 13944,23083 13934,23073 13921,23058 13901,23050 13875,23050 L 13849,23050 13849,23031 14102,23031 C 14175,23031 14230,23037 14265,23047 14300,23058 14329,23078 14354,23107 14378,23136 14391,23170 14391,23210 14391,23253 14376,23290 14349,23321 14321,23352 14278,23375 14219,23389 L 14363,23588 C 14396,23634 14425,23664 14448,23679 14472,23694 14502,23704 14540,23708 L 14540,23727 Z M 14540,23727 L 14540,23727 Z M 14046,23369 C 14053,23369 14058,23369 14063,23369 14068,23369 14072,23369 14075,23369 14141,23369 14191,23355 14225,23326 14258,23298 14275,23261 14275,23217 14275,23173 14261,23138 14234,23111 14207,23084 14171,23070 14127,23070 14107,23070 14080,23074 14046,23080 L 14046,23369 Z M 14046,23369 L 14046,23369 Z M 14750,23069 L 14750,23344 14903,23344 C 14943,23344 14969,23338 14982,23326 15000,23310 15010,23282 15012,23243 L 15031,23243 15031,23485 15012,23485 C 15007,23452 15002,23430 14998,23420 14991,23409 14981,23399 14967,23392 14953,23385 14932,23382 14903,23382 L 14750,23382 14750,23611 C 14750,23642 14752,23660 14754,23667 14757,23674 14762,23679 14769,23683 14775,23687 14789,23689 14808,23689 L 14925,23689 C 14965,23689 14993,23686 15011,23681 15029,23675 15046,23664 15062,23648 15083,23627 15105,23595 15127,23553 L 15148,23553 15088,23727 14553,23727 14553,23708 14577,23708 C 14594,23708 14609,23704 14624,23696 14635,23690 14642,23682 14646,23671 14650,23660 14652,23638 14652,23604 L 14652,23152 C 14652,23108 14648,23081 14639,23071 14626,23057 14606,23050 14577,23050 L 14553,23050 14553,23031 15088,23031 15095,23183 15075,23183 C 15068,23147 15060,23122 15052,23108 15043,23095 15030,23084 15013,23077 14999,23072 14975,23069 14941,23069 L 14750,23069 Z M 14750,23069 L 14750,23069 Z M 15803,23016 L 15819,23251 15803,23251 C 15782,23181 15752,23130 15713,23099 15673,23068 15626,23052 15571,23052 15525,23052 15483,23064 15446,23087 15409,23111 15380,23148 15358,23199 15337,23250 15326,23314 15326,23391 15326,23454 15336,23509 15357,23555 15377,23601 15407,23636 15448,23661 15488,23685 15534,23697 15586,23697 15631,23697 15671,23688 15705,23668 15740,23649 15778,23611 15819,23554 L 15835,23564 C 15800,23626 15759,23671 15713,23700 15667,23728 15611,23743 15547,23743 15432,23743 15343,23700 15280,23614 15233,23551 15210,23476 15210,23390 15210,23320 15225,23256 15256,23198 15287,23140 15330,23095 15384,23063 15439,23031 15498,23016 15563,23016 15613,23016 15663,23028 15711,23052 15726,23060 15736,23064 15742,23064 15751,23064 15759,23060 15766,23054 15775,23045 15781,23032 15785,23016 L 15803,23016 Z M 15803,23016 L 15803,23016 Z M 16087,23353 L 16409,23353 16409,23155 C 16409,23119 16407,23096 16403,23085 16399,23076 16392,23069 16381,23063 16367,23054 16351,23050 16335,23050 L 16310,23050 16310,23031 16607,23031 16607,23050 16582,23050 C 16566,23050 16551,23054 16536,23062 16525,23067 16518,23076 16514,23087 16510,23098 16508,23121 16508,23155 L 16508,23604 C 16508,23639 16510,23662 16514,23673 16518,23682 16525,23689 16535,23695 16550,23704 16566,23708 16582,23708 L 16607,23708 16607,23727 16310,23727 16310,23708 16335,23708 C 16363,23708 16384,23699 16397,23683 16405,23672 16409,23645 16409,23604 L 16409,23392 16087,23392 16087,23604 C 16087,23639 16089,23662 16093,23673 16097,23682 16104,23689 16115,23695 16130,23704 16145,23708 16162,23708 L 16187,23708 16187,23727 15889,23727 15889,23708 15914,23708 C 15942,23708 15963,23699 15976,23683 15984,23672 15988,23645 15988,23604 L 15988,23155 C 15988,23119 15986,23096 15982,23085 15978,23076 15971,23069 15961,23063 15946,23054 15930,23050 15914,23050 L 15889,23050 15889,23031 16187,23031 16187,23050 16162,23050 C 16145,23050 16130,23054 16115,23062 16104,23067 16097,23076 16093,23087 16089,23098 16087,23121 16087,23155 L 16087,23353 Z M 16087,23353 L 16087,23353 Z M 16953,23708 L 16953,23727 16655,23727 16655,23708 16679,23708 C 16708,23708 16730,23699 16743,23683 16751,23672 16755,23645 16755,23604 L 16755,23154 C 16755,23119 16753,23096 16748,23085 16745,23076 16738,23069 16727,23063 16711,23054 16696,23050 16679,23050 L 16655,23050 16655,23031 16953,23031 16953,23050 16928,23050 C 16900,23050 16879,23059 16866,23075 16858,23086 16853,23113 16853,23154 L 16853,23604 C 16853,23639 16856,23662 16860,23673 16863,23682 16871,23689 16881,23695 16896,23704 16912,23708 16928,23708 L 16953,23708 Z M 16953,23708 L 16953,23708 Z M 17408,23727 L 17140,23141 17140,23606 C 17140,23649 17144,23676 17153,23686 17166,23701 17186,23708 17213,23708 L 17238,23708 17238,23727 16996,23727 16996,23708 17021,23708 C 17050,23708 17071,23699 17083,23681 17091,23670 17095,23645 17095,23606 L 17095,23152 C 17095,23121 17091,23099 17084,23085 17079,23075 17071,23067 17058,23060 17045,23054 17025,23050 16996,23050 L 16996,23031 17193,23031 17445,23576 17693,23031 17889,23031 17889,23050 17865,23050 C 17835,23050 17814,23059 17802,23077 17795,23088 17791,23113 17791,23152 L 17791,23606 C 17791,23649 17796,23676 17805,23686 17818,23701 17838,23708 17865,23708 L 17889,23708 17889,23727 17594,23727 17594,23708 17619,23708 C 17649,23708 17669,23699 17681,23681 17689,23670 17693,23645 17693,23606 L 17693,23141 17425,23727 17408,23727 Z"/>
    </g>
   </g>
  </g>
 </g>
</svg>